<svg width="48" height="48" viewBox="0 0 48 48" fill="none" xmlns="http://www.w3.org/2000/svg">
<rect width="48" height="48" rx="24" fill="white"/>
<path d="M14 26.4996L23.6422 31.3207C23.7734 31.3863 23.839 31.4191 23.9078 31.432C23.9687 31.4434 24.0313 31.4434 24.0922 31.432C24.161 31.4191 24.2266 31.3863 24.3578 31.3207L34 26.4996M14 21.4996L23.6422 16.6785C23.7734 16.6129 23.839 16.5801 23.9078 16.5672C23.9687 16.5557 24.0313 16.5557 24.0922 16.5672C24.161 16.5801 24.2266 16.6129 24.3578 16.6785L34 21.4996L24.3578 26.3207C24.2266 26.3863 24.161 26.4191 24.0922 26.432C24.0313 26.4434 23.9687 26.4434 23.9078 26.432C23.839 26.4191 23.7734 26.3863 23.6422 26.3207L14 21.4996Z" stroke="#080808" stroke-width="2" stroke-linecap="round" stroke-linejoin="round"/>
</svg>
