<svg width="29" height="29" viewBox="0 0 29 29" fill="none" xmlns="http://www.w3.org/2000/svg">
<rect x="-0.00282231" y="0.00300211" width="4.30471" height="5.07602" rx="0.519625" transform="matrix(0.0309622 0.999433 -0.999609 0.0309251 25.6142 12.0682)" fill="#B05A36" stroke="black" stroke-width="0.00582732"/>
<rect x="-0.00412131" y="-7.31773e-05" width="4.30523" height="5.07541" rx="0.519625" transform="matrix(-0.719996 0.694191 -0.694481 -0.719306 23.7943 20.9285)" fill="#B05A36" stroke="black" stroke-width="0.00582732"/>
<rect x="-0.00288044" y="-0.00294646" width="4.30697" height="5.07336" rx="0.519625" transform="matrix(-1.00001 -0.0113972 0.0114112 -0.999859 16.241 25.7284)" fill="#B05A36" stroke="black" stroke-width="0.00582732"/>
<rect x="-0.000136075" y="-0.00411688" width="4.30651" height="5.0739" rx="0.519625" transform="matrix(-0.730308 -0.682914 0.683606 -0.730042 7.67116 23.8131)" fill="#B05A36" stroke="black" stroke-width="0.00582732"/>
<rect x="0.00290045" y="-0.0029268" width="4.30467" height="5.07606" rx="0.519625" transform="matrix(-0.00460518 -0.999909 1.00007 -0.00459958 2.74473 16.289)" fill="#B05A36" stroke="black" stroke-width="0.00582732"/>
<rect x="0.00412134" y="-7.13608e-05" width="4.30515" height="5.0755" rx="0.519625" transform="matrix(0.695207 -0.719007 0.719281 0.694515 4.65426 7.63575)" fill="#B05A36" stroke="black" stroke-width="0.00582732"/>
<rect x="0.00298679" y="0.00283875" width="4.30692" height="5.07341" rx="0.519625" transform="matrix(0.999766 -0.0253028 0.0253332 0.999593 12.1451 2.83211)" fill="#B05A36" stroke="black" stroke-width="0.00582732"/>
<rect x="3.76321e-06" y="0.00411912" width="4.30643" height="5.07398" rx="0.519625" transform="matrix(0.707995 0.706012 -0.706704 0.707714 20.8981 4.71214)" fill="#B05A36" stroke="black" stroke-width="0.00582732"/>
</svg>
