<svg width="69" height="70" viewBox="0 0 69 70" fill="none" xmlns="http://www.w3.org/2000/svg">
<path d="M38.5393 56.8376V17.7066C38.5393 13.0187 42.943 11.2437 45.1449 10.9422C49.9441 10.6726 52.2396 13.6638 53.1366 16.2074C53.5255 17.3101 54.4585 18.208 55.5736 18.5594C57.4387 19.147 58.8634 20.2424 59.4505 20.8528C61.3652 23.0048 61.5704 25.4517 61.2287 27.3345C60.9815 28.6968 61.4648 30.2377 62.5916 31.0423C65.4979 33.1176 66.5604 35.5634 66.7205 36.7019C67.3774 41.9891 65.5186 45.4074 63.1106 47.2721C62.166 48.0037 61.6079 49.2011 61.7858 50.3826C62.7882 57.0381 57.7526 58.9441 54.3995 59.1961C53.4754 59.2655 52.6089 59.7284 52.0357 60.4566C49.3121 63.916 45.5195 63.8862 43.816 63.366C40.1575 62.548 38.7738 58.6729 38.5393 56.8376Z" fill="white"/>
<path d="M35.3933 56.8376V17.7066C35.3933 13.0187 30.9896 11.2437 28.7877 10.9422C23.9885 10.6726 21.693 13.6638 20.796 16.2074C20.4072 17.3101 19.4742 18.208 18.359 18.5594C16.4939 19.147 15.0692 20.2424 14.4821 20.8528C12.5674 23.0048 12.3622 25.4517 12.7039 27.3345C12.9511 28.6968 12.4678 30.2377 11.341 31.0423C8.43472 33.1176 7.37219 35.5634 7.21208 36.7019C6.55524 41.9891 8.41404 45.4074 10.822 47.2721C11.7667 48.0037 12.3247 49.2011 12.1468 50.3826C11.1444 57.0381 16.18 58.9441 19.5331 59.1961C20.4572 59.2655 21.3237 59.7284 21.8969 60.4566C24.6205 63.916 28.4131 63.8862 30.1167 63.366C33.7751 62.548 35.1588 58.6729 35.3933 56.8376Z" fill="white"/>
<path d="M61.4307 1.41453C61.7201 0.833153 62.5495 0.833153 62.8389 1.41453L64.1084 3.9649C64.1847 4.11811 64.3088 4.24227 64.462 4.31853L67.0124 5.58803C67.5938 5.87742 67.5938 6.70685 67.0124 6.99624L64.462 8.26574C64.3088 8.342 64.1847 8.46616 64.1084 8.61937L62.8389 11.1697C62.5495 11.7511 61.7201 11.7511 61.4307 11.1697L60.1612 8.61937C60.0849 8.46616 59.9608 8.342 59.8076 8.26574L57.2572 6.99624C56.6758 6.70685 56.6758 5.87742 57.2572 5.58803L59.8076 4.31853C59.9608 4.24227 60.0849 4.11811 60.1612 3.9649L61.4307 1.41453Z" fill="white"/>
<path d="M5.58803 58.8303C5.87742 58.2489 6.70685 58.2489 6.99624 58.8303L8.26574 61.3806C8.342 61.5339 8.46616 61.658 8.61937 61.7343L11.1697 63.0038C11.7511 63.2932 11.7511 64.1226 11.1697 64.412L8.61937 65.6815C8.46616 65.7577 8.342 65.8819 8.26574 66.0351L6.99624 68.5855C6.70685 69.1669 5.87742 69.1669 5.58803 68.5855L4.31853 66.0351C4.24227 65.8819 4.11811 65.7577 3.9649 65.6815L1.41453 64.412C0.833153 64.1226 0.833153 63.2932 1.41453 63.0038L3.9649 61.7343C4.11811 61.658 4.24227 61.5339 4.31853 61.3806L5.58803 58.8303Z" fill="white"/>
</svg>
