<svg width="17" height="17" viewBox="0 0 17 17" fill="none" xmlns="http://www.w3.org/2000/svg">
<path d="M12.9552 12.9551L14.4956 12.1849V10.2559M9.86732 6.78637L8.32686 7.5566L9.86732 6.78637ZM8.32686 7.5566L6.7864 6.78637L8.32686 7.5566ZM8.32686 7.5566V9.48564V7.5566ZM14.4956 4.46874L12.9552 5.23897L14.4956 4.46874ZM14.4956 4.46874L12.9552 3.69851L14.4956 4.46874ZM14.4956 4.46874V6.39778V4.46874ZM9.86732 2.15805L8.32686 1.38782L6.7864 2.15805H9.86732ZM2.15808 4.46874L3.69854 3.69851L2.15808 4.46874ZM2.15808 4.46874L3.69854 5.23897L2.15808 4.46874ZM2.15808 4.46874V6.39778V4.46874ZM8.32686 15.2658L6.7864 14.4956L8.32686 15.2658ZM8.32686 15.2658L9.86732 14.4956L8.32686 15.2658ZM8.32686 15.2658V13.3368V15.2658ZM3.69854 12.9551L2.15808 12.1849V10.2559L3.69854 12.9551Z" stroke="white" stroke-width="1.04085" stroke-linecap="round" stroke-linejoin="round"/>
</svg>
