<svg width="29" height="29" viewBox="0 0 29 29" fill="none" xmlns="http://www.w3.org/2000/svg">
<rect x="25.611" y="12.0694" width="4.30729" height="5.07647" rx="0.519625" transform="rotate(88.2268 25.611 12.0694)" fill="#B05A36" stroke="black" stroke-width="0.00582732"/>
<rect x="23.7972" y="20.9335" width="4.30729" height="5.07647" rx="0.519625" transform="rotate(136.026 23.7972 20.9335)" fill="#B05A36" stroke="black" stroke-width="0.00582732"/>
<rect x="16.2438" y="25.7471" width="4.30729" height="5.07647" rx="0.519625" transform="rotate(-179.347 16.2438 25.7471)" fill="#B05A36" stroke="black" stroke-width="0.00582732"/>
<rect x="7.66841" y="23.8279" width="4.30729" height="5.07647" rx="0.519625" transform="rotate(-136.901 7.66841 23.8279)" fill="#B05A36" stroke="black" stroke-width="0.00582732"/>
<rect x="2.74176" y="16.29" width="4.30729" height="5.07647" rx="0.519625" transform="rotate(-90.2637 2.74176 16.29)" fill="#B05A36" stroke="black" stroke-width="0.00582732"/>
<rect x="4.65704" y="7.63665" width="4.30729" height="5.07647" rx="0.519625" transform="rotate(-45.9839 4.65704 7.63665)" fill="#B05A36" stroke="black" stroke-width="0.00582732"/>
<rect x="12.1481" y="2.83487" width="4.30729" height="5.07647" rx="0.519625" transform="rotate(-1.45077 12.1481 2.83487)" fill="#B05A36" stroke="black" stroke-width="0.00582732"/>
<rect x="20.8951" y="4.71506" width="4.30729" height="5.07647" rx="0.519625" transform="rotate(44.9394 20.8951 4.71506)" fill="#B05A36" stroke="black" stroke-width="0.00582732"/>
</svg>
